{
  "streams": [
    {
      "index": 0,
      "codec_name": "h264",
      "codec_long_name": "H.264 / AVC / MPEG-4 AVC / MPEG-4 part 10",
      "profile": "High",
      "codec_type": "video",
      "codec_tag_string": "avc1",
      "codec_tag": "0x31637661",
      "width": 3840,
      "height": 2160,
      "coded_width": 3840,
      "coded_height": 2160,
      "closed_captions": 0,
      "film_grain": 0,
      "has_b_frames": 0,
      "pix_fmt": "yuv420p",
      "level": 51,
      "color_range": "tv",
      "color_space": "bt709",
      "color_transfer": "bt709",
      "color_primaries": "bt709",
      "chroma_location": "left",
      "field_order": "progressive",
      "refs": 1,
      "is_avc": "true",
      "nal_length_size": "4",
      "id": "0x1",
      "r_frame_rate": "24/1",
      "avg_frame_rate": "4525/199",
      "time_base": "1/600",
      "start_pts": 0,
      "start_time": "0.000000",
      "duration_ts": 4240,
      "duration": "7.066667",
      "bit_rate": "34431965",
      "bits_per_raw_sample": "8",
      "nb_frames": "181",
      "extradata_size": 158,
      "disposition": {
        "default": 1,
        "dub": 0,
        "original": 0,
        "comment": 0,
        "lyrics": 0,
        "karaoke": 0,
        "forced": 0,
        "hearing_impaired": 0,
        "visual_impaired": 0,
        "clean_effects": 0,
        "attached_pic": 0,
        "timed_thumbnails": 0,
        "non_diegetic": 0,
        "captions": 0,
        "descriptions": 0,
        "metadata": 0,
        "dependent": 0,
        "still_image": 0
      },
      "tags": {
        "creation_time": "2025-03-03T14:37:06.000000Z",
        "language": "und",
        "handler_name": "Core Media Video",
        "vendor_id": "[0][0][0][0]",
        "encoder": "H.264"
      },
      "side_data_list": [
        {
          "side_data_type": "Display Matrix",
          "displaymatrix": "\n00000000:            0       65536           0\n00000001:       -65536           0           0\n00000002:    141557760           0  1073741824\n",
          "rotation": -90
        }
      ]
    },
    {
      "index": 1,
      "codec_name": "aac",
      "codec_long_name": "AAC (Advanced Audio Coding)",
      "profile": "LC",
      "codec_type": "audio",
      "codec_tag_string": "mp4a",
      "codec_tag": "0x6134706d",
      "sample_fmt": "fltp",
      "sample_rate": "44100",
      "channels": 2,
      "channel_layout": "stereo",
      "bits_per_sample": 0,
      "initial_padding": 0,
      "id": "0x2",
      "r_frame_rate": "0/0",
      "avg_frame_rate": "0/0",
      "time_base": "1/44100",
      "start_pts": 0,
      "start_time": "0.000000",
      "duration_ts": 311640,
      "duration": "7.066667",
      "bit_rate": "190951",
      "nb_frames": "306",
      "extradata_size": 2,
      "disposition": {
        "default": 1,
        "dub": 0,
        "original": 0,
        "comment": 0,
        "lyrics": 0,
        "karaoke": 0,
        "forced": 0,
        "hearing_impaired": 0,
        "visual_impaired": 0,
        "clean_effects": 0,
        "attached_pic": 0,
        "timed_thumbnails": 0,
        "non_diegetic": 0,
        "captions": 0,
        "descriptions": 0,
        "metadata": 0,
        "dependent": 0,
        "still_image": 0
      },
      "tags": {
        "creation_time": "2025-03-03T14:37:06.000000Z",
        "language": "und",
        "handler_name": "Core Media Audio",
        "vendor_id": "[0][0][0][0]"
      }
    },
    {
      "index": 2,
      "codec_type": "data",
      "codec_tag_string": "mebx",
      "codec_tag": "0x7862656d",
      "id": "0x3",
      "r_frame_rate": "0/0",
      "avg_frame_rate": "0/0",
      "time_base": "1/600",
      "start_pts": 0,
      "start_time": "0.000000",
      "duration_ts": 4240,
      "duration": "7.066667",
      "bit_rate": "2",
      "nb_frames": "1",
      "disposition": {
        "default": 1,
        "dub": 0,
        "original": 0,
        "comment": 0,
        "lyrics": 0,
        "karaoke": 0,
        "forced": 0,
        "hearing_impaired": 0,
        "visual_impaired": 0,
        "clean_effects": 0,
        "attached_pic": 0,
        "timed_thumbnails": 0,
        "non_diegetic": 0,
        "captions": 0,
        "descriptions": 0,
        "metadata": 0,
        "dependent": 0,
        "still_image": 0
      },
      "tags": {
        "creation_time": "2025-03-03T14:37:06.000000Z",
        "language": "und",
        "handler_name": "Core Media Metadata"
      }
    },
    {
      "index": 3,
      "codec_type": "data",
      "codec_tag_string": "mebx",
      "codec_tag": "0x7862656d",
      "id": "0x4",
      "r_frame_rate": "0/0",
      "avg_frame_rate": "0/0",
      "time_base": "1/600",
      "start_pts": 0,
      "start_time": "0.000000",
      "duration_ts": 4240,
      "duration": "7.066667",
      "bit_rate": "19254",
      "nb_frames": "171",
      "disposition": {
        "default": 1,
        "dub": 0,
        "original": 0,
        "comment": 0,
        "lyrics": 0,
        "karaoke": 0,
        "forced": 0,
        "hearing_impaired": 0,
        "visual_impaired": 0,
        "clean_effects": 0,
        "attached_pic": 0,
        "timed_thumbnails": 0,
        "non_diegetic": 0,
        "captions": 0,
        "descriptions": 0,
        "metadata": 0,
        "dependent": 0,
        "still_image": 0
      },
      "tags": {
        "creation_time": "2025-03-03T14:37:06.000000Z",
        "language": "und",
        "handler_name": "Core Media Metadata"
      }
    }
  ],
  "format": {
    "filename": "TEST-916.mov",
    "nb_streams": 4,
    "nb_programs": 0,
    "nb_stream_groups": 0,
    "format_name": "mov,mp4,m4a,3gp,3g2,mj2",
    "format_long_name": "QuickTime / MOV",
    "start_time": "0.000000",
    "duration": "7.066667",
    "size": "34453567",
    "bit_rate": "39004036",
    "probe_score": 100,
    "tags": {
      "major_brand": "qt  ",
      "minor_version": "0",
      "compatible_brands": "qt  ",
      "creation_time": "2025-03-03T14:37:06.000000Z",
      "com.apple.quicktime.make": "Apple",
      "com.apple.quicktime.model": "iPhone 13 Pro",
      "com.apple.quicktime.software": "17.6.1",
      "com.apple.quicktime.creationdate": "2025-02-21T09:29:21+0100"
    }
  }
}